HIERARCHY
ROOT Hips
{
    OFFSET 0.000 93.594 0.000
    CHANNELS 6 Xposition Yposition Zposition Yrotation Xrotation Zrotation
    JOINT RightHip
    {
        OFFSET -9.500 -1.594 0.000
        CHANNELS 3 Yrotation Xrotation Zrotation
        JOINT RightKnee
        {
            OFFSET 0.000 -42.000 0.000
            CHANNELS 3 Yrotation Xrotation Zrotation
            JOINT RightAnkle
            {
                OFFSET 0.000 -42.000 0.000
                CHANNELS 3 Yrotation Xrotation Zrotation
                End Site
                {
                    OFFSET 0.000 -8.000 17.500
                }
            }
        }
    }
    JOINT LeftHip
    {
        OFFSET 9.500 -1.594 0.000
        CHANNELS 3 Yrotation Xrotation Zrotation
        JOINT LeftKnee
        {
            OFFSET 0.000 -42.000 0.000
            CHANNELS 3 Yrotation Xrotation Zrotation
            JOINT LeftAnkle
            {
                OFFSET 0.000 -42.000 0.000
                CHANNELS 3 Yrotation Xrotation Zrotation
                End Site
                {
                    OFFSET 0.000 -8.000 17.500
                }
            }
        }
    }
    JOINT Chest
    {
        OFFSET 0.000 14.348 0.000
        CHANNELS 3 Yrotation Xrotation Zrotation
        JOINT Chest2
        {
            OFFSET 0.000 9.746 0.000
            CHANNELS 3 Yrotation Xrotation Zrotation
            JOINT Chest3
            {
                OFFSET 0.000 10.149 0.000
                CHANNELS 3 Yrotation Xrotation Zrotation
                JOINT Chest4
                {
                    OFFSET 0.000 9.746 0.000
                    CHANNELS 3 Yrotation Xrotation Zrotation
                    JOINT Neck
                    {
                        OFFSET 0.000 10.417 0.000
                        CHANNELS 3 Yrotation Xrotation Zrotation
                        JOINT Head
                        {
                            OFFSET 0.000 9.000 0.000
                            CHANNELS 3 Yrotation Xrotation Zrotation
                            End Site
                            {
                                OFFSET 0.000 16.000 0.000
                            }
                        }
                    }
                    JOINT RightCollar
                    {
                        OFFSET -3.200 6.945 0.000
                        CHANNELS 3 Yrotation Xrotation Zrotation
                        JOINT RightShoulder
                        {
                            OFFSET -12.800 0.000 0.000
                            CHANNELS 3 Yrotation Xrotation Zrotation
                            JOINT RightElbow
                            {
OFFSET -0 -27 0.000
						CHANNELS 3 Xrotation Yrotation Zrotation
                                JOINT RightWrist
                                {
OFFSET -0 -26 0.000
						CHANNELS 3 Xrotation Yrotation Zrotation
                                    JOINT RightFinger0
                                    {
OFFSET -0.196 -2.56 3.210
						CHANNELS 3 Xrotation Yrotation Zrotation
                                        JOINT RightFinger01
                                        {
OFFSET -0 -3.788 0.000
						CHANNELS 3 Xrotation Yrotation Zrotation
                                            JOINT RightFinger0Nub
                                            {
OFFSET -0 -2.631 0.000
						CHANNELS 3 Xrotation Yrotation Zrotation
                                                End Site
                                                {
OFFSET 0 -2.256 0
                                                }
                                            }
                                        }
                                    }
                                    JOINT RightFinger1
                                    {
OFFSET -0.523 -3.316 2.035
						CHANNELS 3 Xrotation Yrotation Zrotation
                                        JOINT RightFinger11
                                        {
OFFSET 0.094 -5.366 1.028
						CHANNELS 3 Xrotation Yrotation Zrotation
                                            JOINT RightFinger12
                                            {
OFFSET -0 -3.723 0.000
						CHANNELS 3 Xrotation Yrotation Zrotation
                                                JOINT RightFinger1Nub
                                                {
OFFSET -0 -2.111 0.000
						CHANNELS 3 Xrotation Yrotation Zrotation
                                                    End Site
                                                    {
OFFSET 0 -1.857 0
                                                    }
                                                }
                                            }
                                        }
                                    }
                                    JOINT RightFinger2
                                    {
OFFSET -0.532 -3.479 0.778
						CHANNELS 3 Xrotation Yrotation Zrotation
                                        JOINT RightFinger21
                                        {
OFFSET 0.086 -5.322 0.323
						CHANNELS 3 Xrotation Yrotation Zrotation
                                            JOINT RightFinger22
                                            {
OFFSET -0 -4.062 0.000
						CHANNELS 3 Xrotation Yrotation Zrotation
                                                JOINT RightFinger2Nub
                                                {
OFFSET -0 -2.547 0.000
						CHANNELS 3 Xrotation Yrotation Zrotation
                                                    End Site
                                                    {
OFFSET 0 -2.031 0
                                                    }
                                                }
                                            }
                                        }
                                    }
                                    JOINT RightFinger3
                                    {
OFFSET -0.553 -3.461 -0.133
						CHANNELS 3 Xrotation Yrotation Zrotation
                                        JOINT RightFinger31
                                        {
OFFSET 0.023 -4.767 -0.493
						CHANNELS 3 Xrotation Yrotation Zrotation
                                            JOINT RightFinger32
                                            {
OFFSET -0 -3.541 0.000
						CHANNELS 3 Xrotation Yrotation Zrotation
                                                JOINT RightFinger3Nub
                                                {
OFFSET -0 -2.456 0.000
						CHANNELS 3 Xrotation Yrotation Zrotation
                                                    End Site
                                                    {
OFFSET 0 -1.91 0
                                                    }
                                                }
                                            }
                                        }
                                    }
                                    JOINT RightFinger4
                                    {
OFFSET -0.483 -3.251 -1.236
						CHANNELS 3 Xrotation Yrotation Zrotation
                                        JOINT RightFinger41
                                        {
OFFSET 0.023 -4.259 -1.122
						CHANNELS 3 Xrotation Yrotation Zrotation
                                            JOINT RightFinger42
                                            {
OFFSET -0 -2.835 0.000
						CHANNELS 3 Xrotation Yrotation Zrotation
                                                JOINT RightFinger4Nub
                                                {
OFFSET -0 -1.792 0.000
						CHANNELS 3 Xrotation Yrotation Zrotation
                                                    End Site
                                                    {
OFFSET 0 -1.692 0
                                                    }
                                                }
                                            }
                                        }
                                    }
                                }
                            }
                        }
                    }
                    JOINT LeftCollar
                    {
                        OFFSET 3.200 6.945 0.000
                        CHANNELS 3 Yrotation Xrotation Zrotation
                        JOINT LeftShoulder
                        {
                            OFFSET 12.800 0.000 0.000
                            CHANNELS 3 Yrotation Xrotation Zrotation
                            JOINT LeftElbow
                            {
OFFSET -0 -27 0.000
						CHANNELS 3 Xrotation Yrotation Zrotation
                                JOINT LeftWrist
                                {
OFFSET -0 -26 0.000
						CHANNELS 3 Xrotation Yrotation Zrotation
                                    JOINT LeftFinger0
                                    {
OFFSET -0.196 -2.56 3.210
						CHANNELS 3 Xrotation Yrotation Zrotation
                                        JOINT LeftFinger01
                                        {
OFFSET -0 -3.788 0.000
						CHANNELS 3 Xrotation Yrotation Zrotation
                                            JOINT LeftFinger0Nub
                                            {
OFFSET -0 -2.631 0.000
						CHANNELS 3 Xrotation Yrotation Zrotation
                                                End Site
                                                {
OFFSET 0 -2.256 0
                                                }
                                            }
                                        }
                                    }
                                    JOINT LeftFinger1
                                    {
OFFSET -0.523 -3.316 2.035
						CHANNELS 3 Xrotation Yrotation Zrotation
                                        JOINT LeftFinger11
                                        {
OFFSET 0.094 -5.366 1.028
						CHANNELS 3 Xrotation Yrotation Zrotation
                                            JOINT LeftFinger12
                                            {
OFFSET -0 -3.723 0.000
						CHANNELS 3 Xrotation Yrotation Zrotation
                                                JOINT LeftFinger1Nub
                                                {
OFFSET -0 -2.111 0.000
						CHANNELS 3 Xrotation Yrotation Zrotation
                                                    End Site
                                                    {
OFFSET 0 -1.857 0
                                                    }
                                                }
                                            }
                                        }
                                    }
                                    JOINT LeftFinger2
                                    {
OFFSET -0.532 -3.479 0.778
						CHANNELS 3 Xrotation Yrotation Zrotation
                                        JOINT LeftFinger21
                                        {
OFFSET 0.086 -5.322 0.323
						CHANNELS 3 Xrotation Yrotation Zrotation
                                            JOINT LeftFinger22
                                            {
OFFSET -0 -4.062 0.000
						CHANNELS 3 Xrotation Yrotation Zrotation
                                                JOINT LeftFinger2Nub
                                                {
OFFSET -0 -2.547 0.000
						CHANNELS 3 Xrotation Yrotation Zrotation
                                                    End Site
                                                    {
OFFSET 0 -2.031 0
                                                    }
                                                }
                                            }
                                        }
                                    }
                                    JOINT LeftFinger3
                                    {
OFFSET -0.553 -3.461 -0.133
						CHANNELS 3 Xrotation Yrotation Zrotation
                                        JOINT LeftFinger31
                                        {
OFFSET 0.023 -4.767 -0.493
						CHANNELS 3 Xrotation Yrotation Zrotation
                                            JOINT LeftFinger32
                                            {
OFFSET -0 -3.541 0.000
						CHANNELS 3 Xrotation Yrotation Zrotation
                                                JOINT LeftFinger3Nub
                                                {
OFFSET -0 -2.456 0.000
						CHANNELS 3 Xrotation Yrotation Zrotation
                                                    End Site
                                                    {
OFFSET 0 -1.91 0
                                                    }
                                                }
                                            }
                                        }
                                    }
                                    JOINT LeftFinger4
                                    {
OFFSET -0.483 -3.251 -1.236
						CHANNELS 3 Xrotation Yrotation Zrotation
                                        JOINT LeftFinger41
                                        {
OFFSET 0.023 -4.259 -1.122
						CHANNELS 3 Xrotation Yrotation Zrotation
                                            JOINT LeftFinger42
                                            {
OFFSET -0 -2.835 0.000
						CHANNELS 3 Xrotation Yrotation Zrotation
                                                JOINT LeftFinger4Nub
                                                {
OFFSET -0 -1.792 0.000
						CHANNELS 3 Xrotation Yrotation Zrotation
                                                    End Site
                                                    {
OFFSET 0 -1.692 0
                                                    }
                                                }
                                            }
                                        }
                                    }
                                }
                            }
                        }
                    }
                }
            }
        }
    }
}
MOTION

Frames: 13
Frame Time: 0.017
-213.46 91.67 72.51 73.20 1.79 0.26 2.49 -10.59 -13.64 -0.00 21.74 0.00 -28.65 -4.23 16.69 -7.80 -15.83 5.19 -0.00 31.89 -0.00 17.26 -16.01 -9.67 -8.11 5.59 0.16 -2.03 1.33 0.12 -3.36 2.15 0.17 1.15 2.35 -1.05 -4.02 33.21 -13.04 3.75 34.95 -18.23 14.90 -2.56 -9.77 2.71 -24.19 -2.03 14.92 -37.33 73.65 -26.75 -7.8 13.34 -47.55 -0 24.53 15.44 -0 -5.29 8.23 -0 0.00 0 -0 0.00 -15 -0 27.36 0 -0 22.61 0 -0 11.31 0 -0 0.00 0 -0 27.23 0 -0 27.23 0 -0 27.23 0 -0 0.00 15 -0 35.80 0 -0 35.80 0 -0 35.80 0 -0 0.00 25 -0 42.23 0 -0 42.23 0 -0 42.23 -10.51 -0.17 8.71 39.27 14.43 32.66 -19.09 14.3 -42.12 18.21 18.73 3.62 -16.33 0 -29.43 -22.62 0 14.78 20.56 0 0.00 0.00 0 0.00 -15.00 0 -22.63 0.00 0 -17.03 0.00 0 -8.52 0.00 0 0.00 0.00 0 -26.20 0.00 0 -26.20 0.00 0 -26.20 0.00 0 0.00 15.00 0 -29.35 0.00 0 -29.35 0.00 0 -29.35 0.00 0 0.00 25.00 0 -32.43 0.00 0 -32.43 0.00 0 -32.43 
-213.51 91.69 72.75 73.92 1.72 0.06 1.93 -10.42 -13.23 0.00 21.81 0.00 -28.93 -4.41 16.66 -8.11 -15.83 5.60 0.00 31.90 0.00 16.67 -15.98 -9.69 -8.44 5.59 0.34 -2.11 1.33 0.17 -3.49 2.15 0.25 1.14 2.36 -1.05 -4.03 33.34 -13.02 3.59 34.95 -18.23 15.03 -2.58 -9.67 2.67 -24.01 -2.24 15.15 -37.32 73.64 -26.82 -7.88 13.08 -47.51 -0 24.51 15.52 -0 -5.31 8.27 -0 0.00 0 -0 0.00 -15 -0 27.41 0 -0 22.69 0 -0 11.34 0 -0 0.00 0 -0 27.37 0 -0 27.37 0 -0 27.37 0 -0 0.00 15 -0 35.97 0 -0 35.97 0 -0 35.97 0 -0 0.00 25 -0 42.43 0 -0 42.43 0 -0 42.43 -10.25 -0.21 9.08 39.00 14.33 33.65 -24.67 11.19 -39.42 16.20 18.49 4.83 -15.67 0 -29.27 -21.30 0 14.95 18.82 0 0.00 0.00 0 0.00 -15.00 0 -21.26 0.00 0 -22.77 0.00 0 -11.39 0.00 0 0.00 0.00 0 -25.82 0.00 0 -25.82 0.00 0 -25.82 0.00 0 0.00 15.00 0 -28.71 0.00 0 -28.71 0.00 0 -28.71 0.00 0 0.00 25.00 0 -31.38 0.00 0 -31.38 0.00 0 -31.38 
-213.58 91.70 72.99 74.63 1.63 -0.13 1.32 -10.25 -12.83 0.00 21.87 0.00 -29.16 -4.60 16.60 -8.38 -15.81 6.01 -0.00 31.89 -0.00 16.08 -15.91 -9.72 -8.76 5.55 0.52 -2.19 1.32 0.21 -3.61 2.14 0.32 1.14 2.37 -1.05 -4.03 33.51 -12.99 3.43 34.99 -18.23 15.17 -2.52 -9.58 2.62 -23.82 -2.47 15.12 -37.34 73.58 -26.9 -7.86 12.84 -47.51 -0 24.52 15.53 -0 -5.30 8.1 -0 0.00 0 -0 0.00 -15 -0 27.51 0 -0 22.76 0 -0 11.38 0 -0 0.00 0 -0 27.46 0 -0 27.46 0 -0 27.46 0 -0 0.00 15 -0 36.13 0 -0 36.13 0 -0 36.13 0 -0 0.00 25 -0 42.63 0 -0 42.63 0 -0 42.63 -9.78 -0.36 9.59 38.40 14.09 34.4 -31.90 6.24 -36.14 14.01 17.27 5.77 -15.16 0 -29.66 -20.28 0 14.55 17.75 0 0.00 0.00 0 0.00 -15.00 0 -29.97 0.00 0 -20.92 0.00 0 -10.46 0.00 0 0.00 0.00 0 -25.19 0.00 0 -25.19 0.00 0 -25.19 0.00 0 0.00 15.00 0 -28.34 0.00 0 -28.34 0.00 0 -28.34 0.00 0 0.00 25.00 0 -30.24 0.00 0 -30.24 0.00 0 -30.24 
-213.68 91.72 73.21 75.37 1.68 -0.26 0.69 -10.25 -12.50 -0.00 21.93 -0.00 -29.39 -4.72 16.52 -8.92 -15.93 6.37 0.00 31.80 0.00 15.76 -15.75 -9.78 -9.02 5.34 0.71 -2.26 1.27 0.26 -3.72 2.06 0.40 1.13 2.38 -1.04 -4.04 33.81 -12.95 3.14 35.05 -18.21 15.37 -2.38 -9.47 2.46 -23.59 -2.77 15.03 -37.41 73.58 -26.94 -7.87 12.76 -47.52 -0 24.54 15.5 -0 -5.28 8.01 -0 0.00 0 -0 0.00 -15 -0 27.65 0 -0 22.82 0 -0 11.41 0 -0 0.00 0 -0 27.54 0 -0 27.54 0 -0 27.54 0 -0 0.00 15 -0 36.15 0 -0 36.15 0 -0 36.15 0 -0 0.00 25 -0 42.68 0 -0 42.68 0 -0 42.68 -9.41 -0.52 10.04 37.99 13.60 35 -39.34 0.3 -33.36 12.05 15.6 6.36 -14.40 0 -30.29 -18.76 0 13.92 16.57 0 0.00 0.00 0 0.00 -15.00 0 -39.57 0.00 0 -15.48 0.00 0 -7.74 0.00 0 0.00 0.00 0 -24.77 0.00 0 -24.77 0.00 0 -24.77 0.00 0 0.00 15.00 0 -28.31 0.00 0 -28.31 0.00 0 -28.31 0.00 0 0.00 25.00 0 -29.23 0.00 0 -29.23 0.00 0 -29.23 
-213.80 91.73 73.40 76.14 1.76 -0.42 0.06 -10.27 -12.15 0.00 21.99 -0.00 -29.63 -4.76 16.37 -9.55 -16.08 6.76 0.00 31.76 -0.00 15.46 -15.58 -9.84 -9.48 5.32 0.84 -2.37 1.26 0.30 -3.90 2.05 0.46 1.13 2.38 -1.04 -4.04 33.81 -12.95 3.14 35.05 -18.21 16.05 -2.62 -9.32 1.90 -23.24 -2.95 14.87 -37.3 73.56 -26.92 -7.92 12.86 -47.51 -0 24.53 15.52 -0 -5.29 8.1 -0 0.00 0 -0 0.00 -15 -0 27.86 0 -0 22.41 0 -0 11.21 0 -0 0.00 0 -0 27.66 0 -0 27.66 0 -0 27.66 0 -0 0.00 15 -0 36.02 0 -0 36.02 0 -0 36.02 0 -0 0.00 25 -0 42.85 0 -0 42.85 0 -0 42.85 -9.41 -0.52 10.04 38.67 12.43 35.85 -46.06 -5.41 -31.61 10.09 13.19 7.03 -13.32 0 -28.28 -16.59 0 15.94 19.41 0 0.00 0.00 0 0.00 -15.00 0 -38.34 0.00 0 -14.21 0.00 0 -7.11 0.00 0 0.00 0.00 0 -25.31 0.00 0 -25.31 0.00 0 -25.31 0.00 0 0.00 15.00 0 -28.19 0.00 0 -28.19 0.00 0 -28.19 0.00 0 0.00 25.00 0 -28.97 0.00 0 -28.97 0.00 0 -28.97 
-213.93 91.75 73.59 76.94 1.76 -0.60 -0.52 -10.15 -11.79 0.00 21.93 -0.00 -29.92 -4.80 16.29 -10.23 -16.16 7.15 -0.00 31.70 -0.00 15.16 -15.42 -9.90 -9.94 5.35 0.97 -2.49 1.26 0.33 -4.09 2.06 0.52 1.13 2.38 -1.04 -4.04 33.81 -12.95 3.14 35.05 -18.21 16.85 -2.93 -9.17 1.23 -22.79 -3.15 14.8 -37.21 73.68 -26.91 -7.97 13.01 -47.52 -0 24.52 15.5 -0 -5.30 8.22 -0 0.00 0 -0 0.00 -15 -0 28.04 0 -0 21.90 0 -0 10.95 0 -0 0.00 0 -0 27.80 0 -0 27.80 0 -0 27.80 0 -0 0.00 15 -0 35.95 0 -0 35.95 0 -0 35.95 0 -0 0.00 25 -0 42.91 0 -0 42.91 0 -0 42.91 -9.41 -0.52 10.04 39.65 11.26 36.8 -53.13 -11.18 -30.59 9.06 12.75 7.19 -12.18 0 -27.20 -14.31 0 17.01 22.21 0 0.00 0.00 0 0.00 -15.00 0 -36.90 0.00 0 -18.09 0.00 0 -9.04 0.00 0 0.00 0.00 0 -27.55 0.00 0 -27.55 0.00 0 -27.55 0.00 0 0.00 15.00 0 -29.25 0.00 0 -29.25 0.00 0 -29.25 0.00 0 0.00 25.00 0 -29.71 0.00 0 -29.71 0.00 0 -29.71 
-214.05 91.77 73.74 77.75 1.68 -0.77 -1.20 -9.95 -11.47 0.00 21.84 0.00 -30.13 -4.82 16.24 -10.78 -16.20 7.49 -0.00 31.66 -0.00 14.81 -15.25 -9.92 -10.42 5.42 1.09 -2.61 1.28 0.37 -4.28 2.09 0.58 1.13 2.38 -1.04 -4.04 33.81 -12.95 3.14 35.05 -18.21 17.73 -3.30 -8.96 0.82 -22.33 -3.58 14.88 -37.36 74.06 -27.03 -7.92 12.74 -47.52 -0 24.52 15.5 -0 -5.30 8.2 -0 0.00 0 -0 0.00 -15 -0 28.62 0 -0 21.77 0 -0 10.88 0 -0 0.00 0 -0 28.08 0 -0 28.08 0 -0 28.08 0 -0 0.00 15 -0 36.60 0 -0 36.60 0 -0 36.60 0 -0 0.00 25 -0 43.18 0 -0 43.18 0 -0 43.18 -8.79 -1.05 10.73 38.89 12.02 36.51 -59.74 -15.83 -28.63 8.35 13.26 7.49 -11.68 0 -29.17 -13.32 0 15.05 19.48 0 0.00 0.00 0 0.00 -15.00 0 -24.51 0.00 0 -28.70 0.00 0 -14.35 0.00 0 0.00 0.00 0 -29.37 0.00 0 -29.37 0.00 0 -29.37 0.00 0 0.00 15.00 0 -31.42 0.00 0 -31.42 0.00 0 -31.42 0.00 0 0.00 25.00 0 -31.98 0.00 0 -31.98 0.00 0 -31.98 
-214.16 91.78 73.84 78.60 1.58 -0.94 -1.90 -9.67 -11.18 0.00 21.69 0.00 -30.36 -4.81 16.22 -11.50 -16.20 7.78 -0.00 31.64 -0.00 14.57 -15.11 -9.95 -10.92 5.52 1.20 -2.73 1.30 0.40 -4.48 2.12 0.63 1.13 2.38 -1.04 -4.04 33.81 -12.95 3.14 35.05 -18.21 18.61 -3.66 -8.73 0.44 -21.88 -4.01 14.89 -37.56 74.42 -27.13 -7.88 12.38 -47.52 -0 24.52 15.5 -0 -5.30 8.09 -0 0.00 0 -0 0.00 -15 -0 29.23 0 -0 21.70 0 -0 10.85 0 -0 0.00 0 -0 28.41 0 -0 28.41 0 -0 28.41 0 -0 0.00 15 -0 36.88 0 -0 36.88 0 -0 36.88 0 -0 0.00 25 -0 43.47 0 -0 43.47 0 -0 43.47 -8.19 -1.65 11.44 38.12 12.83 36.23 -65.45 -19.25 -27.42 8.01 13.95 7.59 -11.04 0 -31.07 -12.04 0 13.15 15.48 0 0.00 0.00 0 0.00 -15.00 0 -25.41 0.00 0 -31.10 0.00 0 -15.55 0.00 0 0.00 0.00 0 -31.49 0.00 0 -31.49 0.00 0 -31.49 0.00 0 0.00 15.00 0 -33.98 0.00 0 -33.98 0.00 0 -33.98 0.00 0 0.00 25.00 0 -34.59 0.00 0 -34.59 0.00 0 -34.59 
-214.22 91.80 73.92 79.48 1.46 -1.12 -2.48 -9.25 -10.90 0.00 21.44 -0.00 -30.75 -4.75 16.24 -11.96 -16.21 8.05 -0.00 31.65 -0.00 14.05 -15.02 -9.88 -11.12 5.38 1.43 -2.78 1.27 0.46 -4.55 2.07 0.72 1.11 2.40 -1.03 -4.05 34.26 -12.83 2.65 35.07 -18.16 18.99 -3.66 -8.45 -0.26 -21.36 -4.38 14.68 -37.5 74.70 -27.05 -7.96 13.14 -47.48 -0 24.17 15.58 -0 -5.66 7.99 -0 0.00 0 -0 0.00 -15 -0 28.86 0 -0 23.23 0 -0 11.62 0 -0 0.00 0 -0 28.32 0 -0 28.32 0 -0 28.32 0 -0 0.00 15 -0 36.62 0 -0 36.62 0 -0 36.62 0 -0 0.00 25 -0 43.15 0 -0 43.15 0 -0 43.15 -6.93 -3.44 12.91 36.76 14.09 36.84 -70.45 -21 -28.73 8.31 14.13 7.12 -11.01 0 -33.74 -11.98 0 10.47 8.45 0 0.00 0.00 0 0.00 -15.00 0 -26.55 0.00 0 -33.21 0.00 0 -16.61 0.00 0 0.00 0.00 0 -33.44 0.00 0 -33.44 0.00 0 -33.44 0.00 0 0.00 15.00 0 -36.20 0.00 0 -36.20 0.00 0 -36.20 0.00 0 0.00 25.00 0 -36.58 0.00 0 -36.58 0.00 0 -36.58 
-214.28 91.81 73.99 80.28 1.39 -1.28 -2.96 -8.89 -10.65 0.00 21.19 0.00 -31.17 -4.69 16.25 -12.61 -16.23 8.31 0.00 31.66 0.00 13.80 -14.93 -9.88 -11.16 5.19 1.68 -2.79 1.23 0.52 -4.56 2.02 0.82 1.09 2.43 -1.01 -4.05 34.78 -12.64 1.99 35.03 -18.07 19.06 -3.63 -8.25 -0.88 -20.91 -4.69 14.43 -37.48 74.99 -27.1 -7.92 13.20 -47.46 -0 24.04 15.61 -0 -5.78 7.92 -0 0.00 0 -0 0.00 -15 -0 29.29 0 -0 23.52 0 -0 11.76 0 -0 0.00 0 -0 28.53 0 -0 28.53 0 -0 28.53 0 -0 0.00 15 -0 36.74 0 -0 36.74 0 -0 36.74 0 -0 0.00 25 -0 43.25 0 -0 43.25 0 -0 43.25 -7.10 -3.62 13.02 36.57 13.40 37.56 -74.09 -21.2 -30.45 9.01 13.75 6.34 -11.01 0 -33.78 -11.98 0 10.43 7.65 0 0.00 0.00 0 0.00 -15.00 0 -28.09 0.00 0 -34.75 0.00 0 -17.37 0.00 0 0.00 0.00 0 -34.93 0.00 0 -34.93 0.00 0 -34.93 0.00 0 0.00 15.00 0 -37.44 0.00 0 -37.44 0.00 0 -37.44 0.00 0 0.00 25.00 0 -37.99 0.00 0 -37.99 0.00 0 -37.99 
-214.28 91.82 74.07 81.15 1.37 -1.44 -3.66 -8.60 -10.40 0.00 20.99 0.00 -31.43 -4.70 16.28 -12.73 -16.38 8.57 0.00 31.71 -0.00 12.92 -14.91 -9.71 -9.30 3.60 2.53 -2.32 0.87 0.69 -3.81 1.47 1.12 0.94 2.59 -0.93 -4.03 37.86 -11.55 -1.57 34.91 -17.50 15.13 -1.27 -8.39 0.12 -21.36 -4.61 14.6 -38.46 75.08 -27.16 -7.92 13.40 -47.51 -0 24.44 15.53 -0 -5.38 8.06 -0 0.00 0 -0 0.00 -15 -0 29.64 0 -0 23.93 0 -0 11.96 0 -0 0.00 0 -0 28.74 0 -0 28.74 0 -0 28.74 0 -0 0.00 15 -0 36.87 0 -0 36.87 0 -0 36.87 0 -0 0.00 25 -0 43.30 0 -0 43.30 0 -0 43.30 -10.45 -2.25 12.01 33.97 10.77 37.99 -73.92 -20.58 -32.05 9.82 13.49 5.49 -11.13 0 -33.55 -12.22 0 10.66 7.04 0 0.00 0.00 0 0.00 -15.00 0 -28.90 0.00 0 -37.08 0.00 0 -18.54 0.00 0 0.00 0.00 0 -36.06 0.00 0 -36.06 0.00 0 -36.06 0.00 0 0.00 15.00 0 -38.35 0.00 0 -38.35 0.00 0 -38.35 0.00 0 0.00 25.00 0 -38.94 0.00 0 -38.94 0.00 0 -38.94 
-214.27 91.82 74.14 82.07 1.37 -1.64 -4.45 -8.29 -10.13 0.00 20.77 -0.00 -31.66 -4.71 16.28 -13.52 -16.45 8.86 0.00 31.79 0.00 12.66 -14.88 -9.70 -9.21 3.26 2.78 -2.30 0.79 0.74 -3.77 1.35 1.21 0.90 2.62 -0.90 -3.98 38.62 -11.20 -2.39 34.83 -17.23 14.08 -0.77 -8.36 0.45 -21.64 -4.47 14.61 -38.82 75.31 -27.23 -7.93 13.53 -47.48 -0 24.44 15.57 -0 -5.39 8.02 -0 0.00 0 -0 0.00 -15 -0 30.09 0 -0 24.36 0 -0 12.18 0 -0 0.00 0 -0 29.01 0 -0 29.01 0 -0 29.01 0 -0 0.00 15 -0 37.03 0 -0 37.03 0 -0 37.03 0 -0 0.00 25 -0 43.43 0 -0 43.43 0 -0 43.43 -11.13 -2.26 11.81 32.17 10.39 37.93 -75.23 -19.8 -32.77 10.32 13.32 4.78 -11.23 0 -33.22 -12.41 0 10.99 6.54 0 0.00 0.00 0 0.00 -15.00 0 -29.34 0.00 0 -39.36 0.00 0 -19.68 0.00 0 0.00 0.00 0 -37.03 0.00 0 -37.03 0.00 0 -37.03 0.00 0 0.00 15.00 0 -39.28 0.00 0 -39.28 0.00 0 -39.28 0.00 0 0.00 25.00 0 -39.91 0.00 0 -39.91 0.00 0 -39.91 
-214.28 91.82 74.21 83.07 1.32 -1.83 -5.35 -7.93 -9.86 0.00 20.54 0.00 -31.86 -4.72 16.27 -14.48 -16.49 9.15 0.00 31.89 0.00 12.51 -14.82 -9.73 -9.13 2.93 3.00 -2.28 0.72 0.79 -3.74 1.23 1.30 0.85 2.66 -0.87 -3.93 39.43 -10.81 -3.21 34.75 -16.91 13.71 -0.55 -8.08 0.58 -22.37 -3.98 15.11 -39.66 74.86 -27.3 -7.94 13.65 -47.48 -0 24.42 15.59 -0 -5.40 8.3 -0 0.00 0 -0 0.00 -15 -0 30.50 0 -0 24.87 0 -0 12.43 0 -0 0.00 0 -0 29.29 0 -0 29.29 0 -0 29.29 0 -0 0.00 15 -0 37.18 0 -0 37.18 0 -0 37.18 0 -0 0.00 25 -0 43.60 0 -0 43.60 0 -0 43.60 -11.84 -2.11 11.49 30.24 10.03 37.72 -76.14 -18.54 -33.49 10.23 13.54 4.47 -11.24 0 -33.04 -12.43 0 11.17 6.20 0 0.00 0.00 0 0.00 -15.00 0 -30.73 0.00 0 -40.29 0.00 0 -20.15 0.00 0 0.00 0.00 0 -38.11 0.00 0 -38.11 0.00 0 -38.11 0.00 0 0.00 15.00 0 -43.58 0.00 0 -43.58 0.00 0 -43.58 0.00 0 0.00 25.00 0 -41.32 0.00 0 -41.32 0.00 0 -41.32 
